<svg width="89" height="17" viewBox="0 0 89 17" fill="none" xmlns="http://www.w3.org/2000/svg">
<path d="M23.4654 11.2212H16.8814V11.2627C16.8814 12.4392 17.3772 13.5126 19.0069 13.5126C20.3069 13.5126 22.1441 13.4095 22.9696 13.3265H23.0313C23.2579 13.3265 23.4239 13.4296 23.4239 13.6562V15.2254C23.4239 15.5551 23.3409 15.6998 22.9909 15.7828C21.6696 16.1126 20.5559 16.2786 18.7601 16.2786C16.2634 16.2786 13.5793 14.9573 13.5793 10.9744V9.52975C13.5793 6.20637 15.5198 4.10107 18.8005 4.10107C22.0813 4.10107 23.8983 6.41275 23.8983 9.52975V10.7265C23.8983 11.0361 23.7334 11.2223 23.4654 11.2223V11.2212ZM20.6377 9.07437C20.6377 7.54671 19.9356 6.78288 18.7803 6.78288C17.6251 6.78288 16.8814 7.5669 16.8814 9.07437V9.15737H20.6377V9.07437Z" fill="#953CE1"/>
<path d="M48.5656 16.0923H46.0475C45.821 16.0923 45.6348 15.9061 45.6348 15.6795V4.67863C45.6348 4.45206 45.821 4.26587 46.0475 4.26587H48.5656C48.7921 4.26587 48.9783 4.45206 48.9783 4.67863V15.6795C48.9783 15.9061 48.7921 16.0923 48.5656 16.0923Z" fill="#953CE1"/>
<path d="M29.5155 13.9085H26.9975C26.7709 13.9085 26.5847 13.7223 26.5847 13.4957V2.49479C26.5847 2.26822 26.7709 2.08203 26.9975 2.08203H29.5155C29.7421 2.08203 29.9283 2.26822 29.9283 2.49479V13.4957C29.9283 13.7223 29.7421 13.9085 29.5155 13.9085Z" fill="#953CE1"/>
<path d="M54.2623 16.0923H51.7442C51.5177 16.0923 51.3113 15.9094 51.3113 15.7087V2.44768C51.3113 2.24691 51.5177 2.08203 51.7442 2.08203H54.2623C54.4888 2.08203 54.6548 2.24691 54.6548 2.44768V15.7076C54.6548 15.9083 54.49 16.0911 54.2623 16.0911V16.0923Z" fill="#953CE1"/>
<path opacity="0.97" d="M31.6407 13.7392H30.629C30.0098 13.7392 29.9481 13.5945 29.9481 12.769V6.76268H31.6407C31.8672 6.76268 32.0534 6.57649 32.0534 6.34992V4.6787C32.0534 4.45213 31.8672 4.26594 31.6407 4.26594H29.9481L29.7406 2.36927C29.7406 2.16289 29.7866 2.31543 29.5802 2.31543L29.5163 2.20327L26.996 2.16064C26.7694 2.20214 26.5833 2.34683 26.5833 2.5734V12.7488C26.5833 15.6796 27.78 16.2786 30.0502 16.2786C30.6492 16.2786 31.0619 16.2169 31.681 16.1137C31.9289 16.0722 32.0736 15.9073 32.0736 15.7009V14.0914C32.0736 13.8648 31.9087 13.7403 31.6407 13.7403V13.7392Z" fill="#953CE1"/>
<path d="M36.8008 16.2707C36.8008 16.2707 40.2251 16.5555 43.0258 14.9225L41.8986 14.1497" fill="#953CE1"/>
<path d="M43.0751 14.7867V8.31044C43.0751 5.29775 41.2177 4.09985 38.2454 4.09985C36.8826 4.09985 35.438 4.34773 34.6753 4.5328C34.4274 4.59449 34.2827 4.75937 34.2827 4.98706V6.65828C34.2827 6.92635 34.4476 7.02954 34.654 7.02954H34.7572C35.3965 6.96785 36.8624 6.88485 38.1837 6.88485C39.1539 6.88485 39.7316 7.13273 39.7316 8.30932V9.05183H38.6167C35.0869 9.05183 33.5391 10.1252 33.5391 12.5401V12.7263C33.5391 15.4092 35.2731 16.2762 37.0688 16.2762C38.3071 16.2762 39.1326 15.9252 39.9379 15.3475V15.6773C39.9379 15.8096 40.0019 15.9263 40.0995 16.0014V15.9711C41.0315 15.7827 42.0556 15.4642 43.0123 14.9325C43.0348 14.9146 43.0763 14.872 43.0763 14.7833L43.0751 14.7867ZM39.7933 13.305C39.2975 13.5529 38.7199 13.7593 38.1007 13.7593C37.2337 13.7593 36.8008 13.5944 36.8008 12.7274V12.5412C36.8008 11.5295 37.172 11.0349 38.6167 11.0349H39.7933V13.305Z" fill="#953CE1"/>
<path d="M75.9007 16.1855C75.9142 16.181 75.9277 16.1765 75.9411 16.172C76.1273 16.1092 76.5221 15.9668 77.0594 15.7279C77.1076 15.7054 77.1558 15.683 77.203 15.6606V15.6639C77.4441 15.554 77.7099 15.425 77.9948 15.277C78.1036 15.2209 78.172 15.1087 78.172 14.9853V14.5356V5.01408C78.172 4.74489 77.9544 4.52505 77.6875 4.52505C77.4205 4.52505 77.203 4.74489 77.203 5.01408V14.7947C76.1015 15.3061 74.8464 15.7054 73.7225 15.7054C72.0704 15.7054 70.7491 14.8608 70.7491 12.3271V4.99052C70.7491 4.73255 70.5416 4.52393 70.287 4.52393H70.1984C69.9561 4.52393 69.78 4.72357 69.78 4.94678V12.326C69.78 15.3936 71.5421 16.5713 73.6564 16.5713C74.3708 16.5713 75.1279 16.4334 75.8738 16.1944C75.8817 16.1922 75.8907 16.1888 75.8996 16.1855H75.9007Z" fill="#953CE1"/>
<path d="M12.1966 15.6168L8.97077 9.79667C10.5298 9.19772 11.7266 7.85625 11.7266 5.66908V5.40101C11.7266 1.74788 8.92815 0.571289 5.29744 0.571289C3.75969 0.571289 1.94378 0.694668 0.961234 0.839358C0.299474 0.942547 0 1.12874 0 1.82975V15.6785C0 15.905 0.191798 16.0912 0.42734 16.0912H3.20449C3.43891 16.0912 3.63183 15.905 3.63183 15.6785V3.62548C3.88868 3.60529 4.99909 3.56379 5.29744 3.56379C7.09205 3.56379 8.0959 4.14143 8.0959 5.40101V5.66908C8.0959 7.07224 7.39152 7.62968 5.14827 7.62968C5.01143 7.62968 4.59867 7.62296 4.2319 7.61286L3.86064 7.70708L5.37371 10.4584H5.38269L8.24508 15.6796C8.35163 15.886 8.43688 16.0924 8.67242 16.0924H11.9408C12.1753 16.0924 12.2616 15.9892 12.2616 15.8445C12.2616 15.7828 12.2403 15.6998 12.1977 15.6179L12.1966 15.6168Z" fill="#953CE1"/>
<path d="M81.4425 3.11841V2.4746C81.4425 2.26822 81.2978 2.08203 81.0914 2.08203H80.885C80.6786 2.08203 80.5339 2.26822 80.5339 2.4746V3.11841H81.4425Z" fill="#953CE1"/>
<path d="M84.3101 4.53388C83.5048 4.53388 82.2665 4.66175 81.441 4.85355V2.33325H80.5325V15.4058C80.5325 15.6615 80.5942 15.7468 80.842 15.8107C81.7506 16.0025 83.1324 16.2156 84.309 16.2156C87.1568 16.2156 88.3547 14.1058 88.3547 11.036V9.62943C88.3547 6.26119 86.993 4.535 84.309 4.535L84.3101 4.53388ZM87.4473 11.036C87.4473 13.7862 86.6218 15.3845 84.3101 15.3845C83.3197 15.3845 82.1846 15.2353 81.441 15.1075V5.64317C82.225 5.47268 83.5048 5.36613 84.3101 5.36613C86.5803 5.36613 87.4473 6.81527 87.4473 9.62943V11.036Z" fill="#953CE1"/>
<path d="M81.4425 2.57446H80.5339V3.06798H81.4425V2.57446Z" fill="#953CE1"/>
<path d="M67.6756 3.11841V2.4746C67.6756 2.26822 67.5253 2.08203 67.31 2.08203H67.0957C66.8815 2.08203 66.7312 2.26822 66.7312 2.4746V3.11841H67.6756Z" fill="#953CE1"/>
<path d="M57.9407 3.11841V2.4746C57.9407 2.26822 57.7871 2.08203 57.5672 2.08203H57.3474C57.1275 2.08203 56.9739 2.26822 56.9739 2.4746V3.11841H57.9396H57.9407Z" fill="#953CE1"/>
<path d="M66.7313 2.76294V7.4648H57.9422V2.76294H56.9753V15.6998C56.9753 15.9062 57.129 16.0924 57.3488 16.0924H57.5687C57.7885 16.0924 57.9422 15.9062 57.9422 15.6998V8.3105H66.7313V15.6998C66.7313 15.9062 66.8636 16.0924 67.1048 16.0924H67.3022C67.5433 16.0924 67.6757 15.9062 67.6757 15.6998V2.76294H66.7313Z" fill="#953CE1"/>
</svg>